<?xml version="1.0" encoding="UTF-8"?>
<svg version="1.1" xmlns="http://www.w3.org/2000/svg" width="126" height="126">
<path d="M0 0 C41.58 0 83.16 0 126 0 C126 41.58 126 83.16 126 126 C84.42 126 42.84 126 0 126 C0 84.42 0 42.84 0 0 Z " fill="#222223" transform="translate(0,0)"/>
<path d="M0 0 C41.58 0 83.16 0 126 0 C126 41.58 126 83.16 126 126 C84.42 126 42.84 126 0 126 C0 84.42 0 42.84 0 0 Z M11 13 C6.02119547 19.83784313 2.76429356 26.21932848 2.70947266 34.75878906 C2.70275543 35.41805893 2.69603821 36.0773288 2.68911743 36.75657654 C2.67019139 38.92633705 2.66621562 41.09578718 2.6640625 43.265625 C2.65762934 44.78391646 2.6509006 46.3022067 2.64389038 47.82049561 C2.63193004 51.00129059 2.62820812 54.18197709 2.62939453 57.36279297 C2.62959731 61.41896201 2.60233249 65.47442722 2.56785011 69.53042984 C2.54549899 72.66706471 2.54155953 75.80353263 2.54261398 78.94023895 C2.54026893 80.4344296 2.53150772 81.92862563 2.51594925 83.42273712 C2.43803812 91.67962995 2.61991129 98.75793444 7 106 C7.46921875 106.79792969 7.9384375 107.59585938 8.421875 108.41796875 C14.69383003 116.77442648 22.57521421 122.29162545 33 124 C34.88945271 124.08848984 36.78157261 124.1278548 38.6730957 124.12939453 C39.78807938 124.13254669 40.90306305 124.13569885 42.05183411 124.13894653 C43.24773666 124.1369223 44.44363922 124.13489807 45.67578125 124.1328125 C46.91490768 124.13376923 48.15403412 124.13472595 49.43070984 124.13571167 C52.7205074 124.13656559 56.01025756 124.13254937 59.30004883 124.12695312 C61.30608642 124.12500622 63.31208008 124.12694114 65.31811523 124.13037109 C69.18735768 124.13657142 73.05653605 124.13579303 76.92578125 124.1328125 C78.71052605 124.13584885 78.71052605 124.13584885 80.53132629 124.13894653 C93.83795139 124.10164386 105.34552806 122.19233504 115.5390625 112.76953125 C118.4408848 109.25475718 120.23471277 105.17189603 122 101 C122.34617371 100.24965485 122.69234741 99.49930969 123.04901123 98.72622681 C124.12982788 95.6278187 124.25385518 93.19346786 124.25878906 89.91552734 C124.26824554 88.10742081 124.26824554 88.10742081 124.27789307 86.26278687 C124.2738446 84.96692657 124.26979614 83.67106628 124.265625 82.3359375 C124.26697433 80.97937958 124.26891709 79.62282214 124.27142334 78.26626587 C124.27436804 75.42339472 124.27010215 72.58064944 124.26074219 69.73779297 C124.24941332 66.12368278 124.25586917 62.50987187 124.26788712 58.89577293 C124.27517959 56.09190699 124.27278316 53.28810971 124.26763153 50.48424149 C124.26567675 48.5131231 124.27167676 46.54200188 124.27789307 44.57089233 C124.20609906 30.62828991 122.65358667 21.42863342 113.1484375 10.9609375 C104.0580188 2.16979185 93.19533318 1.38617651 81.09375 1.46875 C79.67850479 1.46604666 78.26326141 1.4621573 76.84802246 1.45715332 C73.89963889 1.45129764 70.95174413 1.45969218 68.00341797 1.47851562 C64.25466739 1.50130376 60.50706289 1.48815922 56.75835419 1.46422577 C53.84120296 1.44965998 50.92431627 1.4544225 48.00715637 1.46473694 C46.62628539 1.46737462 45.24538909 1.46424071 43.86454773 1.45481873 C31.15764579 1.38710808 20.1470118 3.6038478 11 13 Z " fill="#020202" transform="translate(0,0)"/>
<path d="M0 0 C-0.2165625 0.58265625 -0.433125 1.1653125 -0.65625 1.765625 C-3.32245137 9.61610682 -5.03164959 17.86414191 -1.25 25.5625 C2.18792775 29.28692173 4.99673781 31.77423029 10.234375 32.16796875 C14.30565442 32.19957806 17.97348501 32.18733597 21.875 30.9375 C25.05860869 29.98241739 25.97436529 30.06349402 29 31 C8.57505083 56.83297354 8.57505083 56.83297354 -5 59 C-20.30087961 60.30819209 -20.30087961 60.30819209 -25.75 56.5 C-30.46126354 52.05973834 -32.72620845 47.46412398 -33.4375 41.0625 C-32.7599074 29.84943531 -26.05421548 18.59352071 -18 11 C-4.81800468 0 -4.81800468 0 0 0 Z " fill="#D4D5D5" transform="translate(62,36)"/>
<path d="M0 0 C13.96683673 -0.68877551 13.96683673 -0.68877551 17.625 1.75 C18.40875 2.4925 19.1925 3.235 20 4 C20.7425 4.61875 21.485 5.2375 22.25 5.875 C25.79321371 10.17747379 26.25866835 14.56796463 26 20 C25.34 20 24.68 20 24 20 C24.04125 21.093125 24.0825 22.18625 24.125 23.3125 C24 27 24 27 22 30 C19.32219253 30.41850219 16.99728278 30.61837314 14.3125 30.625 C13.22473267 30.62959229 13.22473267 30.62959229 12.11499023 30.63427734 C7.5412632 30.48242237 4.8047432 29.89448894 1.5625 26.625 C-1.88247211 22.25357324 -2.16007982 19.34371645 -2.1875 13.75 C-2.20167969 12.44546875 -2.21585937 11.1409375 -2.23046875 9.796875 C-2.00922548 6.15198592 -1.32827399 3.38106107 0 0 Z " fill="#C1C2C1" transform="translate(70,32)"/>
<path d="M0 0 C0.99 0.33 1.98 0.66 3 1 C4.58426585 4.58636005 3.84925561 8.4299216 3.625 12.25 C3.53606648 17.02815573 3.73249928 20.89781151 6.625 24.875 C11.64541669 29.67713771 18.43285997 29.14573404 25 29 C24.01 29.66 23.02 30.32 22 31 C22 31.99 22 32.98 22 34 C15.21986023 36.35830948 8.59595885 37.22126904 1.6875 34.875 C-2.08952297 32.23986769 -4.91624735 29.1675053 -7 25 C-7.61274996 17.55273131 -7.45082821 9.7857704 -4 3 C-2.078125 1.16015625 -2.078125 1.16015625 0 0 Z " fill="#2C2B2D" transform="translate(65,33)"/>
<path d="M0 0 C11.72510036 -0.62626649 11.72510036 -0.62626649 16.5625 1.75 C17.7690625 2.86375 17.7690625 2.86375 19 4 C19.7425 4.61875 20.485 5.2375 21.25 5.875 C24.51080619 9.83455038 25.29636683 13.96176387 25 19 C23.68 19 22.36 19 21 19 C20.34 17.68 19.68 16.36 19 15 C18.01 15 17.02 15 16 15 C15.731875 14.154375 15.46375 13.30875 15.1875 12.4375 C13.9521405 8.86145933 12.523012 5.46139092 11 2 C10.67 2.99 10.34 3.98 10 5 C7.69 4.67 5.38 4.34 3 4 C3 3.34 3 2.68 3 2 C2.01 2 1.02 2 0 2 C0 1.34 0 0.68 0 0 Z " fill="#EDEFEE" transform="translate(71,32)"/>
<path d="M0 0 C0.66 0.99 1.32 1.98 2 3 C1.2884375 4.0828125 1.2884375 4.0828125 0.5625 5.1875 C-0.96561503 7.93810706 -1.52683619 9.92443526 -2 13 C-2.19335938 13.62003906 -2.38671875 14.24007812 -2.5859375 14.87890625 C-3.37096165 18.90030357 -1.81970492 22.43461205 0 26 C3.12162545 29.62559872 6.21849755 32.18342463 11 33 C12.49789742 33.08966287 13.99943021 33.13013894 15.5 33.125 C16.2528125 33.12757812 17.005625 33.13015625 17.78125 33.1328125 C20.00928617 33.08539461 20.00928617 33.08539461 22.09375 32.3671875 C24 32 24 32 27 34 C20.34979916 36.07390284 10.82141898 36.50523916 4.3125 33.94140625 C-0.33690074 30.69210914 -3.36895748 26.42655026 -5 21 C-5.85673886 13.28935023 -3.52509506 6.80496612 0 0 Z " fill="#9C9C9D" transform="translate(34,60)"/>
<path d="M0 0 C2.97 0.33 5.94 0.66 9 1 C9.33 1.99 9.66 2.98 10 4 C10.99 4.33 11.98 4.66 13 5 C10.05613377 6.47193312 7.62609964 5.84936173 4.375 5.5625 C3.18648438 5.46066406 1.99796875 5.35882813 0.7734375 5.25390625 C-0.14179687 5.17011719 -1.05703125 5.08632813 -2 5 C-1.01 4.34 -0.02 3.68 1 3 C0.67 2.01 0.34 1.02 0 0 Z " fill="#414041" transform="translate(73,27)"/>
<path d="M0 0 C0.66 0 1.32 0 2 0 C2 0.66 2 1.32 2 2 C2.66 2 3.32 2 4 2 C4.37769531 2.80824219 4.75539063 3.61648437 5.14453125 4.44921875 C6.8414959 7.38905397 6.8414959 7.38905397 10.57421875 7.70703125 C11.94446863 7.76660733 13.31600403 7.80097482 14.6875 7.8125 C15.38939453 7.83763672 16.09128906 7.86277344 16.81445312 7.88867188 C18.54236781 7.94744448 20.2712443 7.9766097 22 8 C22 8.33 22 8.66 22 9 C7.80538117 10.0735426 7.80538117 10.0735426 3.37890625 7.44140625 C1.70212166 5.70884504 0.28770094 4.03539826 -1 2 C-0.67 1.34 -0.34 0.68 0 0 Z " fill="#939392" transform="translate(70,53)"/>
<path d="M0 0 C0.66 0.99 1.32 1.98 2 3 C1.2884375 4.0828125 1.2884375 4.0828125 0.5625 5.1875 C-0.95780363 7.92404653 -1.44060669 9.96329344 -2 13 C-2.66 13.99 -3.32 14.98 -4 16 C-4.46450943 9.49686791 -3.32575612 5.5825192 0 0 Z " fill="#B0B0AF" transform="translate(34,60)"/>
<path d="M0 0 C-0.33 1.65 -0.66 3.3 -1 5 C-1.99 5.33 -2.98 5.66 -4 6 C-4.33 6.99 -4.66 7.98 -5 9 C-5.66 9 -6.32 9 -7 9 C-6.75 5.625 -6.75 5.625 -6 2 C-3.83076342 0.3905664 -2.68076871 0 0 0 Z " fill="#424343" transform="translate(67,33)"/>
<path d="M0 0 C0.66 0.99 1.32 1.98 2 3 C1.125 5.6875 1.125 5.6875 0 8 C-1.32 8 -2.64 8 -4 8 C-4 6.02 -4 4.04 -4 2 C-2.68 1.34 -1.36 0.68 0 0 Z " fill="#343536" transform="translate(98,50)"/>
<path d="M0 0 C3.3 0.33 6.6 0.66 10 1 C10 2.32 10 3.64 10 5 C7.69 4.67 5.38 4.34 3 4 C3 3.34 3 2.68 3 2 C2.01 2 1.02 2 0 2 C0 1.34 0 0.68 0 0 Z " fill="#E2E3E3" transform="translate(71,32)"/>
<path d="M0 0 C-0.33 0.99 -0.66 1.98 -1 3 C-2.65 3.33 -4.3 3.66 -6 4 C-6 3.34 -6 2.68 -6 2 C-6.99 1.67 -7.98 1.34 -9 1 C-5.94152152 0.45627049 -3.11227195 0 0 0 Z " fill="#121112" transform="translate(93,62)"/>
<path d="M0 0 C0.33 0 0.66 0 1 0 C1.125 5.75 1.125 5.75 0 8 C-1.32 7.67 -2.64 7.34 -4 7 C-3.34 7 -2.68 7 -2 7 C-1.855625 6.030625 -1.71125 5.06125 -1.5625 4.0625 C-1 1 -1 1 0 0 Z " fill="#D9DAD8" transform="translate(93,53)"/>
</svg>
